# xmcd
#
# Track frame offsets: 
#        150
#        18862
#        31286
#        48244
#        72115
#        88608
#        102451
#        119585
#
# Disc length: 1819 seconds
#
# Revision: 0
# Processed by: cddbd v1.5.2PL0 Copyright (c) Steve Scherf et al.
# Submitted via: ExactAudioCopy v1.2
#
DISCID=61071908
DTITLE=Birdlegg - Extra Mayo
DYEAR=2016
DGENRE=Blues
TTITLE0=Eyesight To The Blind
TTITLE1=Just A Little Bit
TTITLE2=Walking The Dog
TTITLE3=I Want To Know
TTITLE4=Checkin Up On My Baby
TTITLE5=If You Love Me Like You Say
TTITLE6=Get Out Of My Life Woman
TTITLE7=If You Were Mine
EXTD=
EXTT0=
EXTT1=
EXTT2=
EXTT3=
EXTT4=
EXTT5=
EXTT6=
EXTT7=
PLAYORDER=
